<svg width="138" height="51" viewBox="0 0 138 51" fill="none" xmlns="http://www.w3.org/2000/svg">
<path fill-rule="evenodd" clip-rule="evenodd" d="M72.8447 42.7254V30.1684L58.1535 24.5139L65.8642 17.0733L55.7586 8.16644L52.8926 13.6182L53.0025 8.37703L40.1958 12.4405L40.5256 19.2727L42.7006 18.7112L44.962 42.819L53.9919 41.5009L53.9762 33.452L72.8447 42.7254Z" fill="#0B0000"/>
<path fill-rule="evenodd" clip-rule="evenodd" d="M42.606 14.1943L50.3874 11.8934L50.8663 19.8566L56.5983 11.8622L62.1969 17.158L54.3684 25.3551L70.4808 31.696V38.9884L51.7615 29.6838L51.7929 39.433L46.9482 40.0881L44.8831 15.6995L42.7002 16.2611L42.606 14.1943Z" fill="white"/>
<path fill-rule="evenodd" clip-rule="evenodd" d="M101.606 9.36676H93.1255L92.8821 10.7472H83.9622L79.7927 36.0718L89.969 37.6628L90.5265 34.0283L93.1883 38.9029L94.8059 35.791L95.4026 40.8996L106.937 42.9196L101.606 9.36676Z" fill="#0B0000"/>
<path fill-rule="evenodd" clip-rule="evenodd" d="M95.3559 11.7077H99.6745L104.048 39.918L97.6723 38.9509L95.9762 27.79L93.5813 33.9437L89.9851 26.2535H89.9458L88.5246 35.1682L82.5492 34.1309L86.1062 13.0102H92.1523L93.6599 21.1995L95.3559 11.7077Z" fill="white"/>
<path fill-rule="evenodd" clip-rule="evenodd" d="M112.403 11.6757L125.163 14.46L126.113 19.1396L127.141 14.9202L138.001 17.533L127.573 48.7382L119.572 46.2346L119.509 43.1071L111.83 42.0386L114.421 19.1396L112.497 18.7107L112.403 11.6757Z" fill="#0B0000"/>
<path fill-rule="evenodd" clip-rule="evenodd" d="M114.673 14.6001L122.988 16.2614L125.791 29.4423L128.657 17.6262L134.986 19.0223L126.074 45.8365L121.645 44.5184L121.26 28.3114L119.03 40.8137L114.201 40.0572L116.369 17.3533L114.547 16.8697L114.673 14.6001Z" fill="white"/>
<path fill-rule="evenodd" clip-rule="evenodd" d="M111.178 38.4348C108.422 39.4643 105.493 39.3473 103.138 38.0994C100.955 36.9529 99.4315 34.9641 98.8426 32.5073C97.6648 27.6093 100.923 22.0171 106.106 20.0439C108.893 18.9988 111.846 19.1236 114.217 20.3793C116.376 21.518 117.884 23.46 118.457 25.8466C119.658 30.8148 116.4 36.4615 111.178 38.4348Z" fill="#0B0000"/>
<path fill-rule="evenodd" clip-rule="evenodd" d="M116.437 26.2999C115.495 22.369 111.271 20.3958 106.936 22.0181C102.736 23.6169 99.9795 28.1328 100.93 32.0636C101.903 36.1193 106.088 38.0847 110.423 36.4625C114.655 34.8714 117.411 30.3244 116.437 26.2999Z" fill="white"/>
<path fill-rule="evenodd" clip-rule="evenodd" d="M113.289 26.9928C113.203 29.1611 111.303 30.7989 108.979 30.7053C106.694 30.6117 104.935 28.8335 105.021 26.6653C105.107 24.6296 107 22.9918 109.324 23.0854C111.617 23.179 113.376 24.9572 113.289 26.9928Z" fill="#0B0000"/>
<path fill-rule="evenodd" clip-rule="evenodd" d="M110.336 23.1789C108.946 23.1243 107.784 24.0759 107.729 25.3004C107.682 26.5249 108.766 27.57 110.155 27.6246C111.545 27.6792 112.707 26.7276 112.762 25.5031C112.809 24.2786 111.726 23.2335 110.336 23.1789Z" fill="white"/>
<path fill-rule="evenodd" clip-rule="evenodd" d="M40.8305 41.1657C38.0117 42.3512 34.9572 42.3512 32.4524 41.1579C30.136 40.0504 28.4636 38.0537 27.749 35.5189C26.3199 30.4728 29.4686 24.5218 34.7766 22.2522C37.6269 21.0589 40.7049 21.0589 43.2254 22.2678C45.5182 23.3597 47.1672 25.3174 47.866 27.7742C49.3265 32.8906 46.17 38.9039 40.8305 41.1657Z" fill="#0B0000"/>
<path fill-rule="evenodd" clip-rule="evenodd" d="M45.8482 28.0859C44.6861 23.999 40.179 22.1116 35.7033 23.999C31.3612 25.8553 28.6679 30.7065 29.83 34.7933C31.0235 39.0128 35.4992 40.8924 39.9749 39.0128C44.3485 37.1565 47.0417 32.2663 45.8482 28.0859Z" fill="white"/>
<path fill-rule="evenodd" clip-rule="evenodd" d="M42.8181 28.8653C42.8181 31.0335 40.9886 32.7416 38.6643 32.7416C36.3794 32.7416 34.5499 31.0335 34.5499 28.8653C34.5499 26.8297 36.3794 25.1138 38.7036 25.1138C40.9886 25.1138 42.8181 26.8219 42.8181 28.8653Z" fill="#0B0000"/>
<path fill-rule="evenodd" clip-rule="evenodd" d="M39.7157 25.1681C38.3259 25.1681 37.1952 26.1664 37.1952 27.3909C37.1952 28.6154 38.318 29.6137 39.7157 29.6137C41.1055 29.6137 42.2362 28.6154 42.2362 27.3909C42.2362 26.1664 41.1055 25.1681 39.7157 25.1681Z" fill="white"/>
<path fill-rule="evenodd" clip-rule="evenodd" d="M25.2758 33.6316C31.3376 29.2093 34.2271 22.5253 32.0364 17.5103C31.0785 15.3187 29.3981 13.5092 27.3409 12.3705C25.8961 11.419 24.1765 10.8185 22.3705 10.6157C17.942 9.84353 12.6261 10.6391 7.39664 12.8463C5.47289 13.6574 3.67477 14.5933 2.05724 15.6151L0 16.9019L1.23277 18.9766L5.06458 25.4111C5.06458 25.4111 6.24239 27.3921 6.25024 27.3843L8.33104 26.3782L8.62156 26.2378L18.1461 47.3662L19.0648 49.3941L21.2006 48.7155L26.3594 47.0777L28.6208 46.3601L28.024 44.0827L25.2758 33.6316Z" fill="black"/>
<path fill-rule="evenodd" clip-rule="evenodd" d="M29.7341 18.4998C28.9725 16.7605 27.6612 15.3956 25.9495 14.4363C24.7088 13.6174 23.2719 13.2118 21.9292 13.0636C18.1131 12.4007 13.3626 13.0246 8.36084 15.1305C6.57842 15.8792 4.91378 16.7371 3.38263 17.7042L7.21444 24.1387C8.19594 23.663 9.25597 23.156 9.82917 22.8518L20.4216 46.3357L25.5804 44.6978L22.4003 32.5464C28.5014 28.8261 31.5794 22.7192 29.7341 18.4998Z" fill="white"/>
<path fill-rule="evenodd" clip-rule="evenodd" d="M83.9237 24.6777L80.2961 21.4331L82.0785 19.5535L83.6803 17.861L82.2041 16.0594C79.3224 12.5341 74.7133 11.1224 69.8764 12.2845C63.1472 13.8912 59.3546 19.6471 60.8544 25.9568C61.459 28.4994 63.0608 30.6754 65.3771 32.0871C68.1411 33.7795 71.6195 34.2397 75.1608 33.3896C78.8984 32.4926 81.6466 30.9874 84.0572 28.515L85.9888 26.5339L83.9237 24.6777Z" fill="#0B0000"/>
<path fill-rule="evenodd" clip-rule="evenodd" d="M78.3467 23.141C77.4359 24.2095 76.3915 25.1845 74.5385 25.629C73.9181 25.7772 73.078 25.9176 72.544 25.824L80.3411 17.5801C78.1426 14.8893 74.5306 13.6414 70.4397 14.6241C65.3515 15.8408 61.9123 20.0525 63.1844 25.4184C64.2051 29.7315 69.0106 32.3755 74.5856 31.0418C77.962 30.2306 80.3097 28.936 82.4141 26.7755L78.3467 23.141Z" fill="white"/>
<path fill-rule="evenodd" clip-rule="evenodd" d="M66.1693 10.9269L75.7174 0L81.0018 7.83835L68.9332 14.2806L66.1693 10.9269Z" fill="#0B0000"/>
<path fill-rule="evenodd" clip-rule="evenodd" d="M75.3084 3.47821L78.1038 7.2531L70.1182 11.184L69.5607 10.3494L75.3084 3.47821Z" fill="white"/>
<path fill-rule="evenodd" clip-rule="evenodd" d="M69.3901 23.2651C68.8169 22.2278 68.9268 20.8941 69.7827 19.966C70.6072 19.0691 71.8635 18.8117 72.9392 19.2251L69.3901 23.2651ZM69.7827 19.966C68.9347 20.8941 68.8169 22.2278 69.3901 23.2651L72.9392 19.2251C71.8635 18.8117 70.5993 19.0691 69.7827 19.966ZM74.9101 18.6167C73.0884 16.971 70.2774 17.1036 68.6206 18.9131C66.9638 20.7225 67.0973 23.5147 68.919 25.1604C69.0681 25.3008 69.233 25.4177 69.3979 25.5269L75.232 18.9287C75.1221 18.8195 75.02 18.7181 74.9101 18.6167ZM69.3901 23.2651C68.8169 22.2278 68.9268 20.8941 69.7827 19.966C70.6072 19.0691 71.8635 18.8117 72.9392 19.2251L69.3901 23.2651Z" fill="black"/>
<path fill-rule="evenodd" clip-rule="evenodd" d="M25.7238 22.5168C25.2683 20.0288 22.0097 18.6328 18.7433 20.372L19.5599 23.2266L20.8476 27.4382L21.4365 29.3569C23.8864 27.8204 26.3519 25.9642 25.7238 22.5168ZM22.4809 26.3229C22.1275 25.1686 21.3659 22.6806 21.3659 22.6806C21.3737 22.6962 21.2088 22.1425 21.0361 21.5263C21.7271 21.4015 22.3866 21.4639 22.9363 21.7291C23.2425 21.8773 23.7686 22.2127 23.8785 22.8522C24.1377 24.2795 23.643 25.3012 22.4809 26.3229Z" fill="black"/>
<path fill-rule="evenodd" clip-rule="evenodd" d="M27.123 50.9147C27.1309 50.9381 27.1387 50.9537 27.1466 50.9771C27.1466 50.9849 27.1545 50.9927 27.1545 51.0005C27.1466 50.9693 27.1309 50.9459 27.123 50.9147Z" fill="black"/>
<path fill-rule="evenodd" clip-rule="evenodd" d="M129.872 45.9075H132.22V46.2507H131.246V48.7855H130.846V46.2507H129.872V45.9075Z" fill="black"/>
<path fill-rule="evenodd" clip-rule="evenodd" d="M132.568 48.7855V45.9075H133.133L133.965 48.3409L134.79 45.9075H135.347V48.7855H134.978V47.0852C134.978 47.0228 134.978 46.9292 134.986 46.7967C134.986 46.6641 134.986 46.5159 134.986 46.3599L134.162 48.7855H133.777L132.945 46.3599V46.4457C132.945 46.5159 132.945 46.6251 132.952 46.7655C132.952 46.9058 132.96 47.015 132.96 47.0852V48.7855H132.568Z" fill="black"/>
</svg>
